<svg width="20" height="20" viewBox="0 0 20 20" fill="none" xmlns="http://www.w3.org/2000/svg">
<path d="M7.83333 1.66669H3C2.72386 1.66669 2.5 1.89054 2.5 2.16669V5.33335C2.5 5.6095 2.72386 5.83335 3 5.83335H7.83333C8.10948 5.83335 8.33333 5.6095 8.33333 5.33335V2.16669C8.33333 1.89054 8.10948 1.66669 7.83333 1.66669Z" fill="white" stroke="white" stroke-width="1.25"/>
<path d="M12.4173 14.1667H7.58398C7.30784 14.1667 7.08398 14.3905 7.08398 14.6667V17.8334C7.08398 18.1095 7.30784 18.3334 7.58398 18.3334H12.4173C12.6935 18.3334 12.9173 18.1095 12.9173 17.8334V14.6667C12.9173 14.3905 12.6935 14.1667 12.4173 14.1667Z" fill="white" stroke="white" stroke-width="1.25"/>
<path d="M16.9993 1.66669H12.166C11.8899 1.66669 11.666 1.89054 11.666 2.16669V5.33335C11.666 5.6095 11.8899 5.83335 12.166 5.83335H16.9993C17.2755 5.83335 17.4993 5.6095 17.4993 5.33335V2.16669C17.4993 1.89054 17.2755 1.66669 16.9993 1.66669Z" fill="white" stroke="white" stroke-width="1.25"/>
<path d="M5.41602 5.83337V8.75004C5.41602 9.19207 5.59161 9.61599 5.90417 9.92855C6.21673 10.2411 6.64065 10.4167 7.08268 10.4167H12.916C13.358 10.4167 13.782 10.2411 14.0945 9.92855C14.4071 9.61599 14.5827 9.19207 14.5827 8.75004V5.83337M9.99935 10.4167V14.1667" stroke="white" stroke-width="1.25"/>
</svg>
