<svg width="20" height="20" viewBox="0 0 20 20" fill="none" xmlns="http://www.w3.org/2000/svg">
<path d="M17.5833 10.4166L18.75 11.5916L13.3083 17.0833L10.4167 14.1666L11.5833 12.9916L13.3083 14.725L17.5833 10.4166ZM9.16667 3.33331C10.0507 3.33331 10.8986 3.6845 11.5237 4.30962C12.1488 4.93474 12.5 5.78259 12.5 6.66665C12.5 7.5507 12.1488 8.39855 11.5237 9.02367C10.8986 9.64879 10.0507 9.99998 9.16667 9.99998C8.28261 9.99998 7.43477 9.64879 6.80964 9.02367C6.18452 8.39855 5.83333 7.5507 5.83333 6.66665C5.83333 5.78259 6.18452 4.93474 6.80964 4.30962C7.43477 3.6845 8.28261 3.33331 9.16667 3.33331ZM9.16667 4.99998C8.72464 4.99998 8.30072 5.17557 7.98816 5.48813C7.67559 5.8007 7.5 6.22462 7.5 6.66665C7.5 7.10867 7.67559 7.5326 7.98816 7.84516C8.30072 8.15772 8.72464 8.33331 9.16667 8.33331C9.60869 8.33331 10.0326 8.15772 10.3452 7.84516C10.6577 7.5326 10.8333 7.10867 10.8333 6.66665C10.8333 6.22462 10.6577 5.8007 10.3452 5.48813C10.0326 5.17557 9.60869 4.99998 9.16667 4.99998ZM9.16667 10.8333C9.73333 10.8333 10.4167 10.9083 11.175 11.05L9.78333 12.4416L9.16667 12.4166C6.69167 12.4166 4.08333 13.6333 4.08333 14.1666V15.0833H9.25L10.8333 16.6666H2.5V14.1666C2.5 11.95 6.94167 10.8333 9.16667 10.8333Z" fill="white"/>
</svg>
