<svg width="20" height="20" viewBox="0 0 20 20" fill="none" xmlns="http://www.w3.org/2000/svg">
<g clip-path="url(#clip0_8_338)">
<path d="M4.33167 18.7501H9.00167L9.3725 17.0835H11.4608L11.8317 18.7501H16.5017L17.0283 16.381C20.07 13.8301 20.9367 9.3893 18.8833 5.83263C18.6944 5.50763 18.4889 5.19986 18.2667 4.9093C18.3111 4.66708 18.3333 4.41958 18.3333 4.1668C18.3332 3.29151 18.0575 2.43847 17.5452 1.72874C17.0329 1.01902 16.3101 0.488639 15.4794 0.21287C14.6487 -0.0628994 13.7522 -0.0700536 12.9172 0.192422C12.0822 0.454898 11.351 0.973673 10.8275 1.67513C9.7075 1.74513 8.5775 2.01013 7.49 2.47013L6.72333 2.79513L7.37167 4.3293L8.13917 4.0043C8.7568 3.74208 9.40279 3.55248 10.0642 3.4393C10.0214 3.67597 10 3.91847 10 4.1668C9.99998 5.0365 10.2721 5.8844 10.7782 6.59167C11.2843 7.29893 11.9991 7.83009 12.8223 8.1107C13.6455 8.39131 14.5358 8.40731 15.3685 8.15644C16.2013 7.90558 16.9346 7.40043 17.4658 6.7118C18.2551 8.10334 18.5176 9.73229 18.2055 11.3013C17.8934 12.8704 17.0275 14.2749 15.7658 15.2585L15.53 15.4426L15.165 17.0843H13.1683L12.7983 15.4176H8.035L7.665 17.0843H5.66833L5.11083 14.576L4.69333 14.416C3.80667 14.076 2.5575 13.3576 1.66667 12.5576V8.75013H2.555L4.26083 5.90847L3.70417 4.51597C4.37583 4.60263 5.15 4.93347 5.87167 5.72763L6.4325 6.3443L7.66583 5.22263L7.105 4.60597C5.5275 2.87097 3.63 2.63097 2.31167 2.93847L1.36583 3.15847L2.40583 5.75847L1.61167 7.08347H0V13.2635L0.245833 13.5076C1.20417 14.461 2.575 15.3076 3.675 15.7968L4.33167 18.7501ZM4.58333 9.58347H6.25333V7.9118H4.58333V9.58347ZM14.1667 6.6668C13.5036 6.6668 12.8677 6.40341 12.3989 5.93457C11.9301 5.46573 11.6667 4.82984 11.6667 4.1668C11.6667 3.50376 11.9301 2.86788 12.3989 2.39903C12.8677 1.93019 13.5036 1.6668 14.1667 1.6668C14.8297 1.6668 15.4656 1.93019 15.9344 2.39903C16.4033 2.86788 16.6667 3.50376 16.6667 4.1668C16.6667 4.82984 16.4033 5.46573 15.9344 5.93457C15.4656 6.40341 14.8297 6.6668 14.1667 6.6668Z" fill="white"/>
</g>
<defs>
<clipPath id="clip0_8_338">
<rect width="20" height="20" fill="white"/>
</clipPath>
</defs>
</svg>
